<mxfile host="app.diagrams.net" modified="2021-12-19T15:35:58.993Z" agent="5.0 (Windows NT 10.0; Win64; x64) AppleWebKit/537.36 (KHTML, like Gecko) Chrome/96.0.4664.110 Safari/537.36" etag="SP48iP3ltfd69TjIsF3L" version="14.6.13" type="github">
  <diagram id="6f8bvQ2bZQIakRe9ymIn" name="Page-1">
    <mxGraphModel dx="1117" dy="1723" grid="1" gridSize="10" guides="1" tooltips="1" connect="1" arrows="1" fold="1" page="1" pageScale="1" pageWidth="850" pageHeight="1100" math="0" shadow="0">
      <root>
        <mxCell id="0" />
        <mxCell id="1" parent="0" />
        <mxCell id="_pkYCO4F-TXkArhnfCwB-7" style="edgeStyle=orthogonalEdgeStyle;rounded=0;orthogonalLoop=1;jettySize=auto;html=1;exitX=0.94;exitY=0.5;exitDx=0;exitDy=0;exitPerimeter=0;entryX=0.06;entryY=0.5;entryDx=0;entryDy=0;entryPerimeter=0;" edge="1" parent="1" source="_pkYCO4F-TXkArhnfCwB-1" target="_pkYCO4F-TXkArhnfCwB-2">
          <mxGeometry relative="1" as="geometry" />
        </mxCell>
        <mxCell id="_pkYCO4F-TXkArhnfCwB-9" value="&lt;font style=&quot;font-size: 14px&quot;&gt;Snapshot&lt;br&gt;&amp;nbsp;replication&lt;/font&gt;" style="edgeLabel;html=1;align=center;verticalAlign=middle;resizable=0;points=[];" vertex="1" connectable="0" parent="_pkYCO4F-TXkArhnfCwB-7">
          <mxGeometry x="0.0989" y="-4" relative="1" as="geometry">
            <mxPoint x="129" y="47" as="offset" />
          </mxGeometry>
        </mxCell>
        <mxCell id="_pkYCO4F-TXkArhnfCwB-8" value="Snapshots" style="rounded=0;whiteSpace=wrap;html=1;sketch=1;fillColor=#f8cecc;strokeColor=#b85450;" vertex="1" parent="1">
          <mxGeometry x="80" y="260" width="120" height="60" as="geometry" />
        </mxCell>
        <mxCell id="_pkYCO4F-TXkArhnfCwB-13" value="DataBases" style="rounded=0;whiteSpace=wrap;html=1;sketch=1;fillColor=#dae8fc;strokeColor=#6c8ebf;" vertex="1" parent="1">
          <mxGeometry x="80" y="140" width="120" height="60" as="geometry" />
        </mxCell>
        <mxCell id="_pkYCO4F-TXkArhnfCwB-14" value="Compute" style="rounded=0;whiteSpace=wrap;html=1;sketch=1;fillColor=#ffe6cc;strokeColor=#d79b00;" vertex="1" parent="1">
          <mxGeometry x="80" y="20" width="120" height="60" as="geometry" />
        </mxCell>
        <mxCell id="_pkYCO4F-TXkArhnfCwB-17" style="edgeStyle=orthogonalEdgeStyle;rounded=0;orthogonalLoop=1;jettySize=auto;html=1;startArrow=classic;startFill=1;" edge="1" parent="1" source="_pkYCO4F-TXkArhnfCwB-24" target="_pkYCO4F-TXkArhnfCwB-3">
          <mxGeometry relative="1" as="geometry">
            <mxPoint x="290" y="110" as="sourcePoint" />
          </mxGeometry>
        </mxCell>
        <mxCell id="_pkYCO4F-TXkArhnfCwB-15" value="" style="outlineConnect=0;dashed=0;verticalLabelPosition=bottom;verticalAlign=top;align=center;html=1;shape=mxgraph.aws3.ec2;fillColor=#F58534;gradientColor=none;sketch=1;" vertex="1" parent="1">
          <mxGeometry x="340" y="30" width="76.5" height="93" as="geometry" />
        </mxCell>
        <mxCell id="_pkYCO4F-TXkArhnfCwB-19" value="Region A" style="swimlane;horizontal=0;sketch=1;" vertex="1" parent="1">
          <mxGeometry x="240" y="-10" width="200" height="370" as="geometry" />
        </mxCell>
        <mxCell id="_pkYCO4F-TXkArhnfCwB-3" value="" style="shape=cylinder3;whiteSpace=wrap;html=1;boundedLbl=1;backgroundOutline=1;size=15;sketch=1;" vertex="1" parent="_pkYCO4F-TXkArhnfCwB-19">
          <mxGeometry x="60" y="160" width="60" height="80" as="geometry" />
        </mxCell>
        <mxCell id="_pkYCO4F-TXkArhnfCwB-1" value="" style="outlineConnect=0;dashed=0;verticalLabelPosition=bottom;verticalAlign=top;align=center;html=1;shape=mxgraph.aws3.bucket;fillColor=#E05243;gradientColor=none;sketch=1;" vertex="1" parent="_pkYCO4F-TXkArhnfCwB-19">
          <mxGeometry x="60" y="270" width="60" height="61.5" as="geometry" />
        </mxCell>
        <mxCell id="_pkYCO4F-TXkArhnfCwB-6" style="edgeStyle=orthogonalEdgeStyle;rounded=0;orthogonalLoop=1;jettySize=auto;html=1;exitX=0.5;exitY=1;exitDx=0;exitDy=0;exitPerimeter=0;entryX=0.5;entryY=0;entryDx=0;entryDy=0;entryPerimeter=0;" edge="1" parent="_pkYCO4F-TXkArhnfCwB-19" source="_pkYCO4F-TXkArhnfCwB-3" target="_pkYCO4F-TXkArhnfCwB-1">
          <mxGeometry relative="1" as="geometry" />
        </mxCell>
        <mxCell id="_pkYCO4F-TXkArhnfCwB-20" value="Region B" style="swimlane;horizontal=0;sketch=1;glass=0;" vertex="1" parent="1">
          <mxGeometry x="500" y="-10" width="200" height="370" as="geometry" />
        </mxCell>
        <mxCell id="_pkYCO4F-TXkArhnfCwB-2" value="" style="outlineConnect=0;dashed=0;verticalLabelPosition=bottom;verticalAlign=top;align=center;html=1;shape=mxgraph.aws3.bucket;fillColor=#E05243;gradientColor=none;sketch=1;" vertex="1" parent="_pkYCO4F-TXkArhnfCwB-20">
          <mxGeometry x="80" y="270" width="60" height="61.5" as="geometry" />
        </mxCell>
        <mxCell id="_pkYCO4F-TXkArhnfCwB-23" style="edgeStyle=orthogonalEdgeStyle;rounded=0;orthogonalLoop=1;jettySize=auto;html=1;exitX=0.5;exitY=1;exitDx=0;exitDy=0;exitPerimeter=0;startArrow=classic;startFill=1;" edge="1" parent="1" source="_pkYCO4F-TXkArhnfCwB-22" target="_pkYCO4F-TXkArhnfCwB-24">
          <mxGeometry relative="1" as="geometry" />
        </mxCell>
        <mxCell id="_pkYCO4F-TXkArhnfCwB-22" value="" style="outlineConnect=0;dashed=0;verticalLabelPosition=bottom;verticalAlign=top;align=center;html=1;shape=mxgraph.aws3.route_53;fillColor=#F58536;gradientColor=none;sketch=1;" vertex="1" parent="1">
          <mxGeometry x="429.5" y="-150" width="70.5" height="85.5" as="geometry" />
        </mxCell>
        <mxCell id="_pkYCO4F-TXkArhnfCwB-24" value="" style="outlineConnect=0;dashed=0;verticalLabelPosition=bottom;verticalAlign=top;align=center;html=1;shape=mxgraph.aws3.ec2;fillColor=#F58534;gradientColor=none;sketch=1;" vertex="1" parent="1">
          <mxGeometry x="291.75" y="20" width="76.5" height="93" as="geometry" />
        </mxCell>
        <mxCell id="_pkYCO4F-TXkArhnfCwB-25" value="Network / routing" style="rounded=0;whiteSpace=wrap;html=1;sketch=1;fillColor=#ffe6cc;strokeColor=#d79b00;" vertex="1" parent="1">
          <mxGeometry x="80" y="-124.5" width="120" height="60" as="geometry" />
        </mxCell>
      </root>
    </mxGraphModel>
  </diagram>
</mxfile>
